<svg width="50" height="50" viewBox="0 0 50 50" fill="none" xmlns="http://www.w3.org/2000/svg">
<mask id="mask0_91_68" style="mask-type:alpha" maskUnits="userSpaceOnUse" x="0" y="0" width="50" height="50">
<rect width="50" height="50" fill="#D9D9D9"/>
</mask>
<g mask="url(#mask0_91_68)">
<path d="M24.9473 39.5832C25.4334 39.5832 25.8591 39.4012 26.2243 39.0373C26.5882 38.6721 26.7702 38.2464 26.7702 37.7603V36.979C28.5063 36.6665 29.9993 35.9894 31.2493 34.9478C32.4993 33.9061 33.1243 32.3609 33.1243 30.3123C33.1243 28.854 32.7077 27.5172 31.8743 26.3019C31.041 25.0866 29.3743 24.0276 26.8743 23.1248C24.791 22.4304 23.35 21.8228 22.5514 21.3019C21.7528 20.7811 21.3535 20.0693 21.3535 19.1665C21.3535 18.2637 21.675 17.5519 22.3181 17.0311C22.9598 16.5103 23.8882 16.2498 25.1035 16.2498C25.798 16.2498 26.4056 16.3714 26.9264 16.6144C27.4473 16.8575 27.8813 17.1873 28.2285 17.604C28.5757 18.0207 28.9667 18.3075 29.4014 18.4644C29.8348 18.62 30.2424 18.6109 30.6243 18.4373C31.1452 18.229 31.5014 17.8728 31.6931 17.3686C31.8834 16.8658 31.8396 16.4061 31.5618 15.9894C31.0063 15.1908 30.3209 14.5137 29.5056 13.9582C28.6889 13.4026 27.8118 13.0901 26.8743 13.0207V12.2394C26.8743 11.7533 26.6917 11.3276 26.3264 10.9623C25.9625 10.5984 25.5375 10.4165 25.0514 10.4165C24.5653 10.4165 24.1403 10.5984 23.7764 10.9623C23.4112 11.3276 23.2285 11.7533 23.2285 12.2394V13.0207C21.4924 13.4026 20.1382 14.1665 19.166 15.3123C18.1938 16.4582 17.7077 17.7429 17.7077 19.1665C17.7077 20.7984 18.1855 22.1179 19.141 23.1248C20.0952 24.1318 21.5966 24.9998 23.6452 25.729C25.8327 26.5276 27.3521 27.2394 28.2035 27.8644C29.0535 28.4894 29.4785 29.3054 29.4785 30.3123C29.4785 31.4582 29.0702 32.2998 28.2535 32.8373C27.4382 33.3762 26.4577 33.6457 25.3118 33.6457C24.4091 33.6457 23.5931 33.4283 22.8639 32.9936C22.1348 32.5603 21.5271 31.9096 21.041 31.0415C20.7632 30.5554 20.3987 30.2255 19.9473 30.0519C19.4959 29.8783 19.0445 29.8783 18.5931 30.0519C18.107 30.2255 17.7514 30.5554 17.5264 31.0415C17.3 31.5276 17.291 31.9964 17.4993 32.4478C18.0549 33.6283 18.8014 34.5915 19.7389 35.3373C20.6764 36.0846 21.8049 36.5971 23.1243 36.8748V37.7603C23.1243 38.2464 23.307 38.6721 23.6723 39.0373C24.0362 39.4012 24.4612 39.5832 24.9473 39.5832ZM24.9993 45.8332C22.1174 45.8332 19.4091 45.2859 16.8743 44.1915C14.3396 43.0984 12.1348 41.6144 10.2598 39.7394C8.38477 37.8644 6.90074 35.6596 5.80768 33.1248C4.71324 30.5901 4.16602 27.8818 4.16602 24.9998C4.16602 22.1179 4.71324 19.4096 5.80768 16.8748C6.90074 14.3401 8.38477 12.1353 10.2598 10.2603C12.1348 8.38525 14.3396 6.90053 16.8743 5.80609C19.4091 4.71303 22.1174 4.1665 24.9993 4.1665C27.8813 4.1665 30.5896 4.71303 33.1243 5.80609C35.6591 6.90053 37.8639 8.38525 39.7389 10.2603C41.6139 12.1353 43.098 14.3401 44.191 16.8748C45.2855 19.4096 45.8327 22.1179 45.8327 24.9998C45.8327 27.8818 45.2855 30.5901 44.191 33.1248C43.098 35.6596 41.6139 37.8644 39.7389 39.7394C37.8639 41.6144 35.6591 43.0984 33.1243 44.1915C30.5896 45.2859 27.8813 45.8332 24.9993 45.8332ZM24.9993 41.6665C29.6174 41.6665 33.55 40.0436 36.7973 36.7978C40.0431 33.5505 41.666 29.6179 41.666 24.9998C41.666 20.3818 40.0431 16.4491 36.7973 13.2019C33.55 9.95609 29.6174 8.33317 24.9993 8.33317C20.3813 8.33317 16.4493 9.95609 13.2035 13.2019C9.95629 16.4491 8.33268 20.3818 8.33268 24.9998C8.33268 29.6179 9.95629 33.5505 13.2035 36.7978C16.4493 40.0436 20.3813 41.6665 24.9993 41.6665Z" fill="#1C1B1F"/>
</g>
</svg>
